<svg width="35" height="35" viewBox="0 0 35 35" fill="none" xmlns="http://www.w3.org/2000/svg">
<path d="M19.5942 22.7996C18.9514 23.1504 18.2308 23.3342 17.4985 23.3342C16.7663 23.3342 16.0457 23.1504 15.4029 22.7996L0 14.3967V27.7084C0 28.8687 0.460936 29.9815 1.28141 30.802C2.10188 31.6225 3.21468 32.0834 4.375 32.0834H30.625C31.7853 32.0834 32.8981 31.6225 33.7186 30.802C34.5391 29.9815 35 28.8687 35 27.7084V14.3967L19.5942 22.7996Z" fill="#074B89"/>
<path d="M17.5 20.4167C17.2564 20.4166 17.0168 20.3554 16.8029 20.2388L0.76125 11.4888C0.530996 11.3635 0.338773 11.1785 0.20481 10.9531C0.0708458 10.7278 9.43369e-05 10.4706 0 10.2084L0 7.29175C0 6.13143 0.460936 5.01863 1.28141 4.19816C2.10188 3.37768 3.21468 2.91675 4.375 2.91675H30.625C31.7853 2.91675 32.8981 3.37768 33.7186 4.19816C34.5391 5.01863 35 6.13143 35 7.29175V10.2084C34.9999 10.4706 34.9292 10.7278 34.7952 10.9531C34.6612 11.1785 34.469 11.3635 34.2388 11.4888L18.1971 20.2388C17.9832 20.3554 17.7436 20.4166 17.5 20.4167Z" fill="#074B89"/>
</svg>
