<svg width="44" height="43" viewBox="0 0 44 43" fill="none" xmlns="http://www.w3.org/2000/svg">
<path d="M21.9994 3.58325C14.9043 3.58325 9.16602 9.19117 9.16602 16.1249C9.16602 19.2424 10.0827 22.1628 11.751 24.7966C13.4927 27.5558 15.7843 29.9208 17.5443 32.6799C18.406 34.0237 19.0294 35.2778 19.6894 36.7291C20.166 37.7145 20.551 39.4166 21.9994 39.4166C23.4477 39.4166 23.8327 37.7145 24.291 36.7291C24.9694 35.2778 25.5744 34.0237 26.436 32.6799C28.196 29.9387 30.4877 27.5737 32.2294 24.7966C33.916 22.1628 34.8327 19.2424 34.8327 16.1249C34.8327 9.19117 29.0944 3.58325 21.9994 3.58325ZM21.9994 21.052C20.7838 21.052 19.618 20.5801 18.7584 19.7401C17.8989 18.9001 17.416 17.7608 17.416 16.5728C17.416 15.3849 17.8989 14.2456 18.7584 13.4056C19.618 12.5656 20.7838 12.0937 21.9994 12.0937C23.2149 12.0937 24.3807 12.5656 25.2403 13.4056C26.0998 14.2456 26.5827 15.3849 26.5827 16.5728C26.5827 17.7608 26.0998 18.9001 25.2403 19.7401C24.3807 20.5801 23.2149 21.052 21.9994 21.052Z" fill="#074B89"/>
</svg>
