<svg width="35" height="35" viewBox="0 0 35 35" fill="none" xmlns="http://www.w3.org/2000/svg">
<path d="M22.8167 21.2307L20.2316 24.4573C16.2289 22.1053 12.8925 18.7709 10.5383 14.7694L13.7697 12.1843C14.1483 11.8811 14.4159 11.461 14.5307 10.9897C14.6454 10.5184 14.6009 10.0224 14.4041 9.57903L11.4586 2.94599C11.2474 2.47024 10.8741 2.08495 10.4053 1.8588C9.93645 1.63264 9.40255 1.58032 8.89873 1.71114L3.29107 3.16583C2.76796 3.30262 2.31318 3.62648 2.01284 4.07608C1.71249 4.52569 1.58745 5.06982 1.66138 5.60544C2.64542 12.6127 5.88396 19.109 10.8874 24.1125C15.8909 29.116 22.3873 32.3545 29.3945 33.3386C29.9301 33.4126 30.4743 33.2876 30.924 32.9873C31.3736 32.6869 31.6974 32.232 31.8341 31.7089L33.2888 26.1018C33.4194 25.5979 33.367 25.0641 33.141 24.5953C32.915 24.1265 32.53 23.753 32.0545 23.5413L25.4226 20.5958C24.9791 20.3987 24.4829 20.3542 24.0114 20.469C23.5399 20.5839 23.1198 20.8518 22.8167 21.2307Z" fill="#074B89"/>
</svg>
