<svg width="35" height="32" viewBox="0 0 35 32" fill="none" xmlns="http://www.w3.org/2000/svg">
<path d="M20.7771 18.5H14.2722C11.5415 18.5028 8.92352 19.5046 6.99264 21.2856C5.06176 23.0665 3.97567 25.4813 3.97266 28C3.97264 28.0967 4.00306 28.1914 4.06021 28.2725C4.11736 28.3536 4.1988 28.4177 4.29465 28.457C4.49847 28.5405 9.37231 30.5 17.5246 30.5C25.677 30.5 30.5508 28.5405 30.7546 28.457C30.8505 28.4177 30.9319 28.3536 30.9891 28.2725C31.0462 28.1914 31.0766 28.0967 31.0766 28C31.0736 25.4813 29.9875 23.0665 28.0566 21.2856C26.1258 19.5046 23.5078 18.5028 20.7771 18.5Z" fill="#555555"/>
<path d="M17.5247 15.9999C21.8683 15.9999 25.1138 11.7939 25.1138 8.03345C25.1138 6.17693 24.3142 4.39646 22.891 3.0837C21.4677 1.77095 19.5374 1.03345 17.5247 1.03345C15.5119 1.03345 13.5816 1.77095 12.1583 3.0837C10.7351 4.39646 9.93555 6.17693 9.93555 8.03345C9.93555 11.7939 13.181 15.9999 17.5247 15.9999Z" fill="#555555"/>
</svg>
