<svg width="82" height="15" viewBox="0 0 82 15" fill="none" xmlns="http://www.w3.org/2000/svg">
<path d="M10.4395 1.454L6.35346 9.266V14H4.71546V9.266L0.611455 1.454H2.42946L5.52546 7.808L8.62146 1.454H10.4395ZM16.1992 14.162C15.2752 14.162 14.4352 13.952 13.6792 13.532C12.9352 13.112 12.3472 12.518 11.9152 11.75C11.4952 10.97 11.2852 10.07 11.2852 9.05C11.2852 8.042 11.5012 7.154 11.9332 6.386C12.3772 5.606 12.9772 5.012 13.7332 4.604C14.4892 4.184 15.3352 3.974 16.2712 3.974C17.2072 3.974 18.0532 4.184 18.8092 4.604C19.5652 5.012 20.1592 5.6 20.5912 6.368C21.0352 7.136 21.2572 8.03 21.2572 9.05C21.2572 10.07 21.0292 10.97 20.5732 11.75C20.1292 12.518 19.5232 13.112 18.7552 13.532C17.9872 13.952 17.1352 14.162 16.1992 14.162ZM16.1992 12.722C16.7872 12.722 17.3392 12.584 17.8552 12.308C18.3712 12.032 18.7852 11.618 19.0972 11.066C19.4212 10.514 19.5832 9.842 19.5832 9.05C19.5832 8.258 19.4272 7.586 19.1152 7.034C18.8032 6.482 18.3952 6.074 17.8912 5.81C17.3872 5.534 16.8412 5.396 16.2532 5.396C15.6532 5.396 15.1012 5.534 14.5972 5.81C14.1052 6.074 13.7092 6.482 13.4092 7.034C13.1092 7.586 12.9592 8.258 12.9592 9.05C12.9592 9.854 13.1032 10.532 13.3912 11.084C13.6912 11.636 14.0872 12.05 14.5792 12.326C15.0712 12.59 15.6112 12.722 16.1992 12.722ZM31.8888 4.136V14H30.2508V12.542C29.9388 13.046 29.5008 13.442 28.9368 13.73C28.3848 14.006 27.7728 14.144 27.1008 14.144C26.3328 14.144 25.6428 13.988 25.0308 13.676C24.4188 13.352 23.9328 12.872 23.5728 12.236C23.2248 11.6 23.0508 10.826 23.0508 9.914V4.136H24.6708V9.698C24.6708 10.67 24.9168 11.42 25.4088 11.948C25.9008 12.464 26.5728 12.722 27.4248 12.722C28.3008 12.722 28.9908 12.452 29.4948 11.912C29.9988 11.372 30.2508 10.586 30.2508 9.554V4.136H31.8888ZM36.0225 5.738C36.3105 5.174 36.7185 4.736 37.2465 4.424C37.7865 4.112 38.4405 3.956 39.2085 3.956V5.648H38.7765C36.9405 5.648 36.0225 6.644 36.0225 8.636V14H34.3845V4.136H36.0225V5.738ZM57.2202 3.956C57.9882 3.956 58.6722 4.118 59.2722 4.442C59.8722 4.754 60.3462 5.228 60.6942 5.864C61.0422 6.5 61.2162 7.274 61.2162 8.186V14H59.5962V8.42C59.5962 7.436 59.3502 6.686 58.8582 6.17C58.3782 5.642 57.7242 5.378 56.8962 5.378C56.0442 5.378 55.3662 5.654 54.8622 6.206C54.3582 6.746 54.1062 7.532 54.1062 8.564V14H52.4862V8.42C52.4862 7.436 52.2402 6.686 51.7482 6.17C51.2682 5.642 50.6142 5.378 49.7862 5.378C48.9342 5.378 48.2562 5.654 47.7522 6.206C47.2482 6.746 46.9962 7.532 46.9962 8.564V14H45.3582V4.136H46.9962V5.558C47.3202 5.042 47.7522 4.646 48.2922 4.37C48.8442 4.094 49.4502 3.956 50.1102 3.956C50.9382 3.956 51.6702 4.142 52.3062 4.514C52.9422 4.886 53.4162 5.432 53.7282 6.152C54.0042 5.456 54.4602 4.916 55.0962 4.532C55.7322 4.148 56.4402 3.956 57.2202 3.956ZM63.0211 9.032C63.0211 8.024 63.2251 7.142 63.6331 6.386C64.0411 5.618 64.5991 5.024 65.3071 4.604C66.0271 4.184 66.8251 3.974 67.7011 3.974C68.5651 3.974 69.3151 4.16 69.9511 4.532C70.5871 4.904 71.0611 5.372 71.3731 5.936V4.136H73.0291V14H71.3731V12.164C71.0491 12.74 70.5631 13.22 69.9151 13.604C69.2791 13.976 68.5351 14.162 67.6831 14.162C66.8071 14.162 66.0151 13.946 65.3071 13.514C64.5991 13.082 64.0411 12.476 63.6331 11.696C63.2251 10.916 63.0211 10.028 63.0211 9.032ZM71.3731 9.05C71.3731 8.306 71.2231 7.658 70.9231 7.106C70.6231 6.554 70.2151 6.134 69.6991 5.846C69.1951 5.546 68.6371 5.396 68.0251 5.396C67.4131 5.396 66.8551 5.54 66.3511 5.828C65.8471 6.116 65.4451 6.536 65.1451 7.088C64.8451 7.64 64.6951 8.288 64.6951 9.032C64.6951 9.788 64.8451 10.448 65.1451 11.012C65.4451 11.564 65.8471 11.99 66.3511 12.29C66.8551 12.578 67.4131 12.722 68.0251 12.722C68.6371 12.722 69.1951 12.578 69.6991 12.29C70.2151 11.99 70.6231 11.564 70.9231 11.012C71.2231 10.448 71.3731 9.794 71.3731 9.05ZM76.3732 2.534C76.0612 2.534 75.7972 2.426 75.5812 2.21C75.3652 1.994 75.2572 1.73 75.2572 1.418C75.2572 1.106 75.3652 0.842 75.5812 0.625999C75.7972 0.409999 76.0612 0.301999 76.3732 0.301999C76.6732 0.301999 76.9252 0.409999 77.1292 0.625999C77.3452 0.842 77.4532 1.106 77.4532 1.418C77.4532 1.73 77.3452 1.994 77.1292 2.21C76.9252 2.426 76.6732 2.534 76.3732 2.534ZM77.1652 4.136V14H75.5272V4.136H77.1652ZM81.3249 0.68V14H79.6869V0.68H81.3249Z" fill="#787373"/>
</svg>
