<svg width="55" height="55" viewBox="0 0 55 55" fill="none" xmlns="http://www.w3.org/2000/svg">
<g filter="url(#filter0_b)">
<circle cx="27.5" cy="27.5" r="27.5" fill="#007AB7"/>
<path fill-rule="evenodd" clip-rule="evenodd" d="M22.0435 23.4792H17.9487V36.667H22.0435V23.4792ZM22.3783 19.3015C22.3783 17.9903 21.3128 16.9231 20.0036 16.9231C18.6869 16.9231 17.6289 17.9903 17.6289 19.3015C17.6289 20.6126 18.6869 21.6799 20.0036 21.6799C21.3128 21.6799 22.3783 20.6126 22.3783 19.3015ZM28.5362 23.4791H24.624V36.6669H28.7113V30.1416C28.7113 28.4265 29.031 26.757 31.1621 26.757C33.2628 26.757 33.2856 28.7238 33.2856 30.256V36.6669H37.3729V29.4403C37.3729 25.888 36.6041 23.159 32.4636 23.159C30.4695 23.159 29.1375 24.249 28.5895 25.2858H28.5362V23.4791Z" fill="white"/>
</g>
<defs>
<filter id="filter0_b" x="-4" y="-4" width="63" height="63" filterUnits="userSpaceOnUse" color-interpolation-filters="sRGB">
<feFlood flood-opacity="0" result="BackgroundImageFix"/>
<feGaussianBlur in="BackgroundImage" stdDeviation="2"/>
<feComposite in2="SourceAlpha" operator="in" result="effect1_backgroundBlur"/>
<feBlend mode="normal" in="SourceGraphic" in2="effect1_backgroundBlur" result="shape"/>
</filter>
</defs>
</svg>
